<svg width="72" height="72" viewBox="0 0 72 72" fill="none" xmlns="http://www.w3.org/2000/svg">
<g filter="url(#filter0_d_103_284)">
<rect x="4" y="3" width="64" height="64" rx="32" fill="#242424" shape-rendering="crispEdges"/>
<path d="M36 45C41.5228 45 46 40.5228 46 35C46 29.4772 41.5228 25 36 25C30.4772 25 26 29.4772 26 35C26 40.5228 30.4772 45 36 45Z" stroke="white" stroke-width="2" stroke-linecap="round" stroke-linejoin="round"/>
<path d="M26 35H46" stroke="white" stroke-width="2" stroke-linecap="round" stroke-linejoin="round"/>
<path d="M36 25C38.5013 27.7384 39.9228 31.292 40 35C39.9228 38.708 38.5013 42.2616 36 45C33.4987 42.2616 32.0772 38.708 32 35C32.0772 31.292 33.4987 27.7384 36 25Z" stroke="white" stroke-width="2" stroke-linecap="round" stroke-linejoin="round"/>
</g>
<defs>
<filter id="filter0_d_103_284" x="0" y="0" width="72" height="72" filterUnits="userSpaceOnUse" color-interpolation-filters="sRGB">
<feFlood flood-opacity="0" result="BackgroundImageFix"/>
<feColorMatrix in="SourceAlpha" type="matrix" values="0 0 0 0 0 0 0 0 0 0 0 0 0 0 0 0 0 0 127 0" result="hardAlpha"/>
<feOffset dy="1"/>
<feGaussianBlur stdDeviation="2"/>
<feComposite in2="hardAlpha" operator="out"/>
<feColorMatrix type="matrix" values="0 0 0 0 0 0 0 0 0 0 0 0 0 0 0 0 0 0 0.25 0"/>
<feBlend mode="normal" in2="BackgroundImageFix" result="effect1_dropShadow_103_284"/>
<feBlend mode="normal" in="SourceGraphic" in2="effect1_dropShadow_103_284" result="shape"/>
</filter>
</defs>
</svg>
