<svg width="64" height="64" viewBox="0 0 64 64" fill="none" xmlns="http://www.w3.org/2000/svg">
<path d="M47.1732 14.0316C61.0395 16.9498 61.1127 47.7707 47.1732 50.3163C44.6276 50.7811 43.0969 50.7571 40.547 50.3163C29.8637 48.4694 35.6026 27.5638 24.7611 27.4789C24.6573 27.4781 24.5991 27.4777 24.4953 27.4789C15.5774 27.5827 32.9496 47.4763 24.4953 50.3163C21.6554 51.2703 19.7549 50.936 16.8238 50.3163C2.96027 47.3851 2.8916 16.6167 16.8238 14.0316C19.4089 13.552 20.967 13.5752 23.5563 14.0316C34.2008 15.9082 28.4101 36.7493 39.2182 36.8513C39.3428 36.8524 39.4126 36.853 39.5371 36.8513C48.4479 36.7267 31.0861 16.8596 39.5371 14.0316C42.3651 13.0853 44.2551 13.4175 47.1732 14.0316Z" fill="#D9F743"/>
<path d="M26.68 22.5603C26.1917 22.4653 25.6573 22.3703 25.2386 22.0621C25.122 21.8489 25.3083 21.6588 25.4476 21.4928C25.7965 20.9945 26.0751 20.5434 26.2152 19.9509C26.2387 19.7848 26.169 19.5477 25.9828 19.5717C25.6111 19.9038 25.1455 20.1649 24.6573 20.236C24.5407 20.26 24.471 20.141 24.4483 20.046C24.3787 19.3816 24.1925 18.7413 23.9366 18.148C23.867 18.0059 23.7277 17.8869 23.5649 17.8869C23.4022 17.9109 23.4483 18.124 23.4257 18.243C23.3325 18.6702 23.2394 19.0734 22.9835 19.4056C22.9139 19.5006 22.7973 19.4527 22.7042 19.4056C22.1228 18.9784 21.5884 18.5991 20.9139 18.4091C20.7973 18.3851 20.705 18.4331 20.6119 18.4802C20.5187 18.5273 20.5657 18.5991 20.5657 18.6462C20.8216 19.0974 21.1471 19.4766 21.2167 19.9989C21.2167 20.1178 21.1236 20.1889 21.0305 20.1889C20.356 20.2839 19.7519 20.45 19.1471 20.7342C18.9843 20.8293 18.845 21.0193 18.9381 21.2085C19.4264 21.2796 19.8912 21.3746 20.3333 21.6597C20.4264 21.7068 20.4726 21.8018 20.4264 21.8968C20.1706 22.3479 19.845 22.7272 19.6361 23.2015C19.543 23.4147 19.4734 23.6047 19.4037 23.8187C19.3803 23.9608 19.4272 24.1038 19.543 24.1748C19.5892 24.1988 19.6596 24.1988 19.7058 24.1509L19.7754 24.0798C19.845 24.0558 19.892 24.0087 19.9382 23.9608C20.2872 23.7708 20.5892 23.5097 20.9843 23.5336C21.054 23.5336 21.1236 23.5336 21.1471 23.6287C21.2167 23.9137 21.2167 24.174 21.2864 24.4591C21.3098 24.5541 21.3325 24.6251 21.356 24.7202C21.4726 25.0523 21.5422 25.3845 21.7511 25.6927C21.8208 25.8117 21.9835 25.9298 22.1463 25.8348C22.2394 25.4316 22.2856 25.0515 22.4483 24.6722C22.5414 24.5062 22.6346 24.2451 22.8435 24.3401C22.9601 24.3872 23.0759 24.4822 23.1925 24.5772C23.6572 24.9333 24.169 25.1705 24.7034 25.3605C24.7965 25.3845 24.8896 25.3605 24.9593 25.3134C25.0054 25.2663 25.122 25.1945 25.0759 25.1234C24.7739 24.6962 24.4945 24.2459 24.4014 23.7476C24.4475 23.5576 24.6573 23.5345 24.82 23.5345C25.4249 23.4634 25.9828 23.2734 26.5407 22.9891C26.6573 22.9181 26.7966 22.7041 26.68 22.5619V22.5603Z" fill="black"/>
</svg>
